<?xml version="1.0" encoding="utf-8"?>
<!-- Generator: Adobe Illustrator 25.4.1, SVG Export Plug-In . SVG Version: 6.00 Build 0)  -->
<svg version="1.1" id="Vrstva_1" xmlns="http://www.w3.org/2000/svg" xmlns:xlink="http://www.w3.org/1999/xlink" x="0px" y="0px"
	 viewBox="0 0 110 50" style="enable-background:new 0 0 110 50;" xml:space="preserve">
<style type="text/css">
	.st0{fill:#FFD100;}
	.st1{fill:#061AB1;}
</style>
<path class="st0" d="M95.8,39.9c2.7,0,5-2.2,5-4.9c0-2.7-2.2-4.9-5-4.9s-5,2.2-5,4.9C90.8,37.7,93.1,39.9,95.8,39.9z"/>
<path class="st1" d="M25.2,24v6.5h5.4c-0.8,1.2-2.6,1.9-3.8,1.9c-4.1,0-6.1-2.3-6.1-7c0-5.1,2.7-7.8,8-7.8c2.1,0,4.9,0.5,7.8,1.5
	v-7.7c-0.9-0.4-2.1-0.6-3.8-0.9c-1.7-0.3-3.2-0.4-4.5-0.4c-5.3,0-9.5,1.4-12.6,4.2c-3.1,2.8-4.7,6.6-4.7,11.4
	c0,4.4,1.2,7.9,3.7,10.4c2.4,2.6,5.7,3.9,9.9,3.9c4.2,0,8-2.1,9.2-4.9l0,4.4h6V24H25.2z"/>
<path class="st1" d="M42.7,39.5v-29H52V32h10.2v7.6H42.7z"/>
<path class="st1" d="M65.6,38.8v-7.9c1.4,0.4,3,0.8,4.8,1.1c1.8,0.3,3.4,0.5,4.7,0.5c2.3,0,3.4-0.6,3.4-1.6c0-0.6-0.4-1-2-1.3
	l-3.2-0.7c-5.6-1.3-8.2-4-8.2-8.8c0-3.1,1.1-5.6,3.2-7.4c2.1-1.8,5.1-2.7,8.9-2.7c2.6,0,6.6,0.5,9,1.1v7.6c-1.3-0.3-2.8-0.6-4.6-0.9
	c-1.8-0.3-3.2-0.4-4.3-0.4c-2,0-3.1,0.6-3.1,1.6c0,0.6,0.5,1,1.6,1.3l3.8,0.9c5.5,1.3,8.1,4.1,8.1,8.9c0,3.1-1.1,5.5-3.4,7.3
	c-2.2,1.8-5.3,2.7-9.2,2.7C71.5,40,67.7,39.5,65.6,38.8z"/>
</svg>
